<?xml version="1.0" encoding="UTF-8"?>
<svg width="184px" height="59px" viewBox="0 0 184 59" version="1.1" xmlns="http://www.w3.org/2000/svg" xmlns:xlink="http://www.w3.org/1999/xlink">
    <!-- Generator: Sketch 52.5 (67469) - http://www.bohemiancoding.com/sketch -->
    <title>tulm</title>
    <desc>Created with Sketch.</desc>
    <defs>
        <linearGradient x1="43.8199743%" y1="3.18531735%" x2="97.7736331%" y2="107.00322%" id="linearGradient-1">
            <stop stop-color="#989A9E" offset="0%"></stop>
            <stop stop-color="#272729" offset="100%"></stop>
        </linearGradient>
        <linearGradient x1="-9.38630362%" y1="59.42071%" x2="140.21807%" y2="35.9816396%" id="linearGradient-2">
            <stop stop-color="#7CCF0F" offset="0%"></stop>
            <stop stop-color="#FFF02B" offset="100%"></stop>
        </linearGradient>
        <linearGradient x1="77.894538%" y1="125.10696%" x2="-10.6371774%" y2="8.57907658%" id="linearGradient-3">
            <stop stop-color="#989A9E" offset="0%"></stop>
            <stop stop-color="#272729" offset="100%"></stop>
        </linearGradient>
        <linearGradient x1="-9.44396913%" y1="59.1723138%" x2="140.174004%" y2="35.7287159%" id="linearGradient-4">
            <stop stop-color="#7CCF0F" offset="0%"></stop>
            <stop stop-color="#FFF02B" offset="100%"></stop>
        </linearGradient>
    </defs>
    <g id="Page-1" stroke="none" stroke-width="1" fill="none" fill-rule="evenodd">
        <g id="Desktop" transform="translate(-424.000000, -482.000000)">
            <g id="tulm" transform="translate(424.000000, 482.000000)">
                <g id="Group" transform="translate(85.000000, 5.000000)" fill="#343434">
                    <g id="Group-2_1_" transform="translate(0.230769, 0.300000)">
                        <path d="M4.65,4.39 L0.4,4.39 L0.4,0.59 L13.82,0.59 L13.82,4.39 L9.56,4.39 L9.56,15.13 L4.66,15.13 L4.66,4.39 L4.65,4.39 Z M22.62,15.46 C20.39,15.46 18.65,14.86 17.41,13.65 C16.16,12.45 15.54,10.76 15.54,8.58 L15.54,0.58 L20.44,0.58 L20.44,8.43 C20.44,9.5 20.63,10.27 21.01,10.76 C21.39,11.24 21.94,11.49 22.66,11.49 C23.38,11.49 23.93,11.25 24.31,10.76 C24.69,10.28 24.88,9.5 24.88,8.43 L24.88,0.58 L29.7,0.58 L29.7,8.58 C29.7,10.75 29.08,12.44 27.83,13.65 C26.59,14.86 24.85,15.46 22.62,15.46 Z M31.95,0.59 L36.85,0.59 L36.85,11.33 L43.41,11.33 L43.41,15.13 L31.95,15.13 L31.95,0.59 Z M57.74,15.13 L57.7,8.5 L54.54,13.82 L52.38,13.82 L49.22,8.73 L49.22,15.13 L44.75,15.13 L44.75,0.59 L48.78,0.59 L53.52,8.34 L58.13,0.59 L62.16,0.59 L62.2,15.13 L57.74,15.13 Z" id="TULM_1_"></path>
                    </g>
                    <path d="M4.94,26.1 L3.28,26.1 L3.28,33.15 L2.29,33.15 L2.29,26.1 L0.63,26.1 L0.63,25.19 L4.94,25.19 L4.94,26.1 Z M9.29,27.12 L9.29,33.15 L8.41,33.15 L8.35,32.51 C7.99,33.1 7.38,33.23 6.79,33.23 C5.45,33.23 4.78,32.66 4.78,31.04 L4.78,27.12 L5.78,27.12 L5.78,31.02 C5.78,31.88 6.25,32.32 6.96,32.32 C7.71,32.32 8.3,31.89 8.3,31.03 L8.3,27.11 L9.29,27.11 L9.29,27.12 Z M5.43,25.67 C5.43,26.46 6.62,26.41 6.62,25.67 C6.63,24.89 5.43,24.92 5.43,25.67 Z M7.7,25.67 C7.7,26.46 8.89,26.41 8.89,25.67 C8.89,24.89 7.7,24.92 7.7,25.67 Z M13.33,27.08 L13.33,28.09 C12.37,27.93 11.63,28.33 11.63,29.26 L11.63,33.16 L10.64,33.16 L10.64,27.07 L11.54,27.07 L11.58,27.63 C11.88,27.18 12.58,26.92 13.33,27.08 Z M18.87,33.15 L17.69,33.15 L15.63,30.45 L15.18,30.45 L15.18,33.15 L14.19,33.15 L14.19,25.13 L15.18,25.13 L15.18,29.51 L15.57,29.51 L17.45,27.07 L18.65,27.07 L16.43,29.93 L18.87,33.15 Z M19.69,33.15 L19.69,27.08 L20.52,27.08 L20.59,27.74 C20.97,27.18 21.55,27 22.15,27 C22.94,27 23.52,27.24 23.81,27.75 C24.2,27.26 24.81,27 25.67,27 C27,27 27.73,27.51 27.73,29.22 L27.73,33.15 L26.73,33.15 L26.73,29.2 C26.73,28.31 26.26,27.94 25.55,27.94 C24.67,27.94 24.21,28.41 24.21,29.49 L24.21,33.15 L23.21,33.15 L23.21,29.18 C23.21,28.09 22.74,27.92 22.01,27.92 C21.26,27.92 20.69,28.26 20.69,29.19 L20.69,33.15 L19.69,33.15 Z M32.56,31.39 L33.52,31.39 C33.52,32.56 32.88,33.22 31.3,33.22 C29.68,33.22 29.06,32.63 29.06,31 L29.06,29.22 C29.06,27.63 29.92,27.05 31.3,27.05 C32.66,27.05 33.54,27.64 33.54,29.22 L33.54,30.52 L30.03,30.52 L30.03,30.98 C30.03,32.06 30.42,32.31 31.3,32.31 C32.16,32.3 32.56,32.01 32.56,31.39 Z M30.03,29.22 L30.03,29.66 L32.59,29.66 L32.59,29.22 C32.59,28.15 32.07,27.92 31.29,27.92 C30.51,27.92 30.03,28.14 30.03,29.22 Z M34.91,33.15 L34.91,27.08 L35.79,27.08 L35.85,27.72 C36.21,27.13 36.82,27 37.41,27 C38.75,27 39.42,27.57 39.42,29.19 L39.42,33.15 L38.42,33.15 L38.42,29.2 C38.42,28.34 37.95,27.9 37.24,27.9 C36.49,27.9 35.9,28.33 35.9,29.19 L35.9,33.15 L34.91,33.15 Z M41.87,33.15 L40.88,33.15 L40.88,27.12 L41.87,27.12 L41.87,33.15 Z M40.79,25.69 C40.79,26.48 41.98,26.43 41.98,25.69 C41.99,24.9 40.79,24.93 40.79,25.69 Z M47.21,28.79 L46.27,28.79 C46.27,28.22 45.93,27.9 45.16,27.9 C44.47,27.9 44.07,28.21 44.07,28.87 C44.07,29.59 44.62,29.58 45.36,29.64 C46.28,29.72 47.38,29.86 47.38,31.33 C47.38,32.6 46.49,33.21 45.23,33.21 C43.84,33.21 43.08,32.57 43.03,31.28 L44.03,31.28 C44.08,32.05 44.6,32.31 45.23,32.31 C45.98,32.31 46.39,31.93 46.39,31.34 C46.39,30.62 45.68,30.56 44.94,30.51 C44.2,30.46 43.08,30.24 43.08,28.87 C43.08,27.8 43.77,27.01 45.19,27.01 C46.59,27 47.24,27.67 47.21,28.79 Z M48.36,31.48 L48.36,26.02 L49.33,25.91 L49.33,27.11 L50.38,27.11 L50.38,28.04 L49.33,28.04 L49.33,31.45 C49.33,32.06 49.61,32.34 50.42,32.24 L50.42,33.15 C48.81,33.33 48.36,32.61 48.36,31.48 Z M55.53,29.05 L55.53,33.15 L54.64,33.15 L54.56,32.33 C54.34,32.78 53.75,33.2 53.01,33.2 C51.62,33.2 51.28,32.46 51.2,31.75 C51.1,30.68 51.82,29.91 53.07,29.74 C53.55,29.67 54.06,29.66 54.53,29.65 L54.53,29.06 C54.53,28.37 54.29,27.93 53.38,27.93 C52.81,27.93 52.41,28.13 52.42,28.95 L51.45,28.95 C51.41,27.6 52.11,27.03 53.4,27.03 C54.74,27.01 55.53,27.58 55.53,29.05 Z M54.55,30.46 C54.27,30.46 53.67,30.45 53.15,30.56 C52.47,30.71 52.12,31.03 52.19,31.62 C52.23,32.1 52.66,32.25 53.1,32.25 C54.2,32.26 54.52,31.46 54.55,30.46 Z M57,33.15 L57,27.08 L57.88,27.08 L57.94,27.72 C58.3,27.13 58.91,27 59.5,27 C60.84,27 61.51,27.57 61.51,29.19 L61.51,33.15 L60.51,33.15 L60.51,29.2 C60.51,28.34 60.04,27.9 59.33,27.9 C58.58,27.9 57.99,28.33 57.99,29.19 L57.99,33.15 L57,33.15 Z M63.97,29.03 L64.75,31.84 C64.86,31.25 65.04,30.48 65.51,28.96 L66.1,27.07 L67.13,27.07 L65.23,33.16 L64.87,34.31 C64.49,35.54 63.81,35.84 62.66,35.37 L62.84,34.53 C63.27,34.71 63.75,34.8 64,34.02 L64.25,33.16 L62.32,27.07 L63.4,27.07 L63.97,29.03 Z M68.07,33.15 L68.07,27.08 L68.95,27.08 L69.01,27.72 C69.37,27.13 69.98,27 70.57,27 C71.91,27 72.58,27.57 72.58,29.19 L72.58,33.15 L71.58,33.15 L71.58,29.2 C71.58,28.34 71.11,27.9 70.4,27.9 C69.65,27.9 69.06,28.33 69.06,29.19 L69.06,33.15 L68.07,33.15 Z M70.65,26.46 L70.06,26.46 L68.77,25.19 L68.77,25.12 L69.74,25.12 L70.33,25.71 L70.93,25.12 L71.9,25.12 L71.9,25.19 L70.65,26.46 Z M5.11,42.99 L5.11,37.6 L6.11,37.6 L6.11,42.98 C6.11,44.73 5.55,45.68 3.65,45.68 C1.75,45.68 1.17,44.74 1.17,42.98 L1.17,37.61 L2.17,37.61 L2.17,42.99 C2.17,44.26 2.42,44.76 3.66,44.76 C4.9,44.76 5.11,44.25 5.11,42.99 Z M7.44,44.03 L7.44,37.6 L8.41,37.6 L8.41,44.03 C8.41,44.52 8.6,44.64 9.03,44.64 L9.03,45.62 C7.84,45.61 7.44,45.31 7.44,44.03 Z M14.13,41.51 L14.13,45.61 L13.24,45.61 L13.16,44.79 C12.94,45.24 12.35,45.66 11.61,45.66 C10.22,45.66 9.88,44.92 9.8,44.21 C9.7,43.14 10.42,42.37 11.67,42.2 C12.15,42.13 12.66,42.12 13.13,42.11 L13.13,41.52 C13.13,40.83 12.89,40.39 11.98,40.39 C11.41,40.39 11.01,40.59 11.02,41.41 L10.05,41.41 C10.01,40.06 10.71,39.49 12,39.49 C13.34,39.48 14.13,40.04 14.13,41.51 Z M13.15,42.92 C12.87,42.92 12.27,42.91 11.75,43.02 C11.07,43.17 10.72,43.49 10.79,44.08 C10.83,44.56 11.26,44.71 11.7,44.71 C12.8,44.72 13.12,43.92 13.15,42.92 Z M17.41,45.64 C16.01,45.64 15.3,44.92 15.3,43.55 L15.3,41.71 C15.3,40.07 16.14,39.52 17.36,39.52 C18.07,39.52 18.66,39.82 18.85,40.35 L18.97,39.58 L19.79,39.58 L19.79,45.81 C19.79,47.46 18.9,48.13 17.55,48.13 C16.26,48.13 15.49,47.65 15.44,46.32 L16.39,46.32 C16.44,47.05 16.91,47.22 17.56,47.22 C18.35,47.22 18.87,46.91 18.87,45.81 L18.87,44.81 C18.72,45.23 18.2,45.64 17.41,45.64 Z M17.41,44.72 C18.26,44.72 18.8,44.39 18.8,43.13 L18.8,41.96 C18.78,40.83 18.32,40.49 17.5,40.45 C16.69,40.45 16.29,40.71 16.29,41.71 L16.29,43.44 C16.29,44.4 16.7,44.72 17.41,44.72 Z M24.84,42.04 L24.84,42.94 L20.94,42.94 L20.94,42.04 L24.84,42.04 Z M26.15,44.03 L26.15,37.6 L27.12,37.6 L27.12,44.03 C27.12,44.52 27.31,44.64 27.74,44.64 L27.74,45.62 C26.56,45.61 26.15,45.31 26.15,44.03 Z M30.85,44.86 C31.76,44.86 32.14,44.51 32.14,43.41 L32.14,41.68 C32.14,40.58 31.67,40.36 30.85,40.36 C30.03,40.36 29.56,40.58 29.56,41.68 L29.56,43.41 C29.56,44.5 29.96,44.86 30.85,44.86 Z M30.85,45.72 C29.21,45.72 28.58,45.06 28.58,43.4 L28.58,41.67 C28.58,40.06 29.45,39.47 30.85,39.47 C32.25,39.47 33.12,40.06 33.12,41.67 L33.12,43.4 C33.12,45.05 32.46,45.72 30.85,45.72 Z M36.27,45.64 C34.87,45.64 34.16,44.92 34.16,43.55 L34.16,41.71 C34.16,40.07 35,39.52 36.22,39.52 C36.93,39.52 37.52,39.82 37.71,40.35 L37.83,39.58 L38.65,39.58 L38.65,45.81 C38.65,47.46 37.76,48.13 36.41,48.13 C35.12,48.13 34.35,47.65 34.3,46.32 L35.25,46.32 C35.3,47.05 35.77,47.22 36.42,47.22 C37.21,47.22 37.73,46.91 37.73,45.81 L37.73,44.81 C37.57,45.23 37.06,45.64 36.27,45.64 Z M36.27,44.72 C37.12,44.72 37.66,44.39 37.66,43.13 L37.66,41.96 C37.64,40.83 37.18,40.49 36.36,40.45 C35.55,40.45 35.15,40.71 35.15,41.71 L35.15,43.44 C35.14,44.4 35.56,44.72 36.27,44.72 Z M40.9,45.61 L39.91,45.61 L39.91,39.58 L40.9,39.58 L40.9,45.61 Z M39.82,38.15 C39.82,38.94 41.01,38.89 41.01,38.15 C41.01,37.36 39.82,37.39 39.82,38.15 Z M46.24,41.25 L45.3,41.25 C45.3,40.68 44.96,40.36 44.19,40.36 C43.5,40.36 43.1,40.67 43.1,41.33 C43.1,42.05 43.65,42.04 44.39,42.1 C45.31,42.18 46.41,42.32 46.41,43.79 C46.41,45.06 45.52,45.67 44.26,45.67 C42.87,45.67 42.11,45.03 42.06,43.74 L43.06,43.74 C43.11,44.51 43.63,44.77 44.26,44.77 C45.01,44.77 45.42,44.39 45.42,43.8 C45.42,43.08 44.71,43.02 43.97,42.97 C43.23,42.92 42.11,42.7 42.11,41.33 C42.11,40.26 42.8,39.47 44.22,39.47 C45.61,39.47 46.27,40.13 46.24,41.25 Z M47.39,43.94 L47.39,38.48 L48.36,38.37 L48.36,39.57 L49.41,39.57 L49.41,40.5 L48.36,40.5 L48.36,43.91 C48.36,44.52 48.64,44.8 49.45,44.7 L49.45,45.61 C47.83,45.79 47.39,45.07 47.39,43.94 Z M51.5,45.61 L50.51,45.61 L50.51,39.58 L51.5,39.58 L51.5,45.61 Z M50.42,38.15 C50.42,38.94 51.61,38.89 51.61,38.15 C51.61,37.36 50.42,37.39 50.42,38.15 Z M57.5,45.61 L56.32,45.61 L54.26,42.91 L53.81,42.91 L53.81,45.61 L52.82,45.61 L52.82,37.6 L53.81,37.6 L53.81,41.98 L54.2,41.98 L56.08,39.54 L57.28,39.54 L55.06,42.4 L57.5,45.61 Z M62.26,41.51 L62.26,45.61 L61.37,45.61 L61.29,44.79 C61.07,45.24 60.48,45.66 59.74,45.66 C58.35,45.66 58.01,44.92 57.93,44.21 C57.83,43.14 58.55,42.37 59.8,42.2 C60.28,42.13 60.79,42.12 61.26,42.11 L61.26,41.52 C61.26,40.83 61.02,40.39 60.11,40.39 C59.54,40.39 59.14,40.59 59.15,41.41 L58.18,41.41 C58.14,40.06 58.84,39.49 60.13,39.49 C61.47,39.48 62.26,40.04 62.26,41.51 Z M61.28,42.92 C61,42.92 60.4,42.91 59.88,43.02 C59.2,43.17 58.85,43.49 58.92,44.08 C58.96,44.56 59.39,44.71 59.83,44.71 C60.93,44.72 61.25,43.92 61.28,42.92 Z M67.38,37.6 L68.79,42 L70.2,37.6 L71.33,37.6 L71.33,45.62 L70.34,45.62 L70.34,41.85 L70.49,39.66 L69.03,44.16 L68.55,44.16 L67.09,39.66 L67.24,41.85 L67.24,45.62 L66.25,45.62 L66.25,37.6 L67.38,37.6 Z M75.99,43.85 L76.95,43.85 C76.95,45.02 76.31,45.68 74.73,45.68 C73.11,45.68 72.49,45.09 72.49,43.46 L72.49,41.68 C72.49,40.09 73.35,39.51 74.73,39.51 C76.09,39.51 76.97,40.1 76.97,41.68 L76.97,42.98 L73.46,42.98 L73.46,43.44 C73.46,44.52 73.85,44.77 74.73,44.77 C75.59,44.76 75.99,44.47 75.99,43.85 Z M73.45,41.68 L73.45,42.12 L76.02,42.12 L76.02,41.68 C76.02,40.61 75.5,40.38 74.72,40.38 C73.94,40.38 73.45,40.6 73.45,41.68 Z M80.83,39.54 L80.83,40.55 C79.87,40.39 79.13,40.79 79.13,41.72 L79.13,45.62 L78.14,45.62 L78.14,39.53 L79.04,39.53 L79.08,40.09 C79.38,39.64 80.08,39.38 80.83,39.54 Z M86.37,45.61 L85.19,45.61 L83.13,42.91 L82.68,42.91 L82.68,45.61 L81.69,45.61 L81.69,37.6 L82.68,37.6 L82.68,41.98 L83.07,41.98 L84.95,39.54 L86.15,39.54 L83.93,42.4 L86.37,45.61 Z M90.4,43.85 L91.36,43.85 C91.36,45.02 90.72,45.68 89.14,45.68 C87.52,45.68 86.9,45.09 86.9,43.46 L86.9,41.68 C86.9,40.09 87.76,39.51 89.14,39.51 C90.5,39.51 91.38,40.1 91.38,41.68 L91.38,42.98 L87.87,42.98 L87.87,43.44 C87.87,44.52 88.26,44.77 89.14,44.77 C90.02,44.77 90.4,44.47 90.4,43.85 Z M87.87,41.68 L87.87,42.12 L90.44,42.12 L90.44,41.68 C90.44,40.61 89.92,40.38 89.14,40.38 C88.36,40.38 87.87,40.6 87.87,41.68 Z M92.21,45.61 L92.21,45.45 L95.2,40.43 L92.49,40.43 L92.49,39.53 L96.66,39.53 L96.66,39.71 L93.71,44.68 L96.72,44.68 L96.72,45.6 L92.21,45.6 L92.21,45.61 Z M98.67,45.61 L97.68,45.61 L97.68,39.58 L98.67,39.58 L98.67,45.61 Z M97.59,38.15 C97.59,38.94 98.78,38.89 98.78,38.15 C98.78,37.36 97.59,37.39 97.59,38.15 Z" id="Türkmenistanyň-Ulag-_1_"></path>
                </g>
                <g id="logo_1_">
                    <path d="M31.79,0.92 C31.79,0.92 40.47,12.33 49.76,12.33 L40.47,12.33 L53.85,29.91 C53.96,29.78 65.76,15.67 54.54,0.92 L31.79,0.92 Z" id="Path_3_" fill="url(#linearGradient-1)"></path>
                    <path d="M53.86,29.91 L44.76,41.87 L31.8,58.91 L54.55,58.91 L76.6,29.92 L54.54,0.92 C65.76,15.67 53.96,29.79 53.86,29.91" id="Fill-8_1_" fill="url(#linearGradient-2)"></path>
                    <path d="M14.06,47.51 L27.87,47.51 L14.48,29.92 C14.48,29.92 7.23,38.53 14.06,47.51" id="Fill-11_1_" fill="url(#linearGradient-3)"></path>
                    <path d="M14.06,12.33 L0.68,29.92 L14.06,47.51 C7.22,38.52 14.48,29.92 14.48,29.92 L27.86,12.33 L14.06,12.33 Z" id="Path_2_" fill="url(#linearGradient-4)"></path>
                </g>
            </g>
        </g>
    </g>
</svg>